<?xml version="1.0" encoding="UTF-8" standalone="no"?><!-- Generator: Gravit.io --><svg xmlns="http://www.w3.org/2000/svg" xmlns:xlink="http://www.w3.org/1999/xlink" style="isolation:isolate" viewBox="0 0 1000 300" width="1000pt" height="300pt"><defs><clipPath id="_clipPath_nuaRpiuo8XHQhZ2jzd0zgozT6W8dYKE7"><rect width="1000" height="300"/></clipPath></defs><g clip-path="url(#_clipPath_nuaRpiuo8XHQhZ2jzd0zgozT6W8dYKE7)"><g><path d="M 167.073 219.9 L 167.073 219.9 C 160.654 226.318 150.232 226.318 143.813 219.9 L 101.945 178.032 C 95.527 171.613 95.527 161.191 101.945 154.772 L 101.945 154.772 C 108.364 148.354 118.786 148.354 125.205 154.772 L 167.073 196.64 C 173.491 203.059 173.491 213.481 167.073 219.9 Z" style="stroke:none;fill:#3F8A61;stroke-miterlimit:10;"/><path d=" M 95.174 167.173 C 95.256 168.97 95.592 170.701 96.152 172.329 L 86.557 162.754 C 80.121 156.33 80.121 145.9 86.557 139.477 L 86.558 139.477 C 92.994 133.054 103.446 133.054 109.882 139.477 L 119.51 149.085 C 117.62 148.424 115.588 148.065 113.474 148.065 C 113.054 148.065 112.638 148.079 112.227 148.112 C 107.746 147.894 103.192 149.491 99.773 152.91 L 99.773 152.91 C 95.892 156.791 94.358 162.135 95.174 167.173 Z " fill="rgb(255,225,90)"/><path d=" M 92.875 219.805 C 86.456 213.386 86.456 202.964 92.875 196.545 C 99.293 190.127 109.716 190.127 116.134 196.545 C 122.553 202.964 122.553 213.386 116.134 219.805 C 109.716 226.224 99.293 226.224 92.875 219.805 Z " fill="rgb(63,138,97)"/><path d=" M 199.456 114.325 C 193.038 107.907 193.038 97.484 199.456 91.066 C 205.875 84.647 216.297 84.647 222.716 91.066 C 229.135 97.484 229.135 107.907 222.716 114.325 C 216.297 120.744 205.875 120.744 199.456 114.325 Z " fill="rgb(0,111,222)"/><path d="M 135.207 135.347 L 135.207 135.347 C 141.626 128.928 152.048 128.928 158.467 135.347 L 222.664 199.544 C 229.082 205.962 229.082 216.385 222.664 222.803 L 222.663 222.804 C 216.245 229.222 205.822 229.222 199.404 222.804 L 135.207 158.607 C 128.788 152.188 128.788 141.766 135.207 135.347 Z" style="stroke:none;fill:#FFE15A;stroke-miterlimit:10;"/><path d=" M 151.77 129.217 L 110.067 87.514 C 103.649 81.095 93.226 81.095 86.808 87.514 L 86.808 87.514 C 80.389 93.933 80.389 104.355 86.808 110.774 L 129.275 153.241 C 128.503 151.216 128.08 149.019 128.08 146.725 C 128.08 144.07 128.646 141.546 129.674 139.273 C 130.465 137.322 131.657 135.498 133.238 133.917 L 133.239 133.917 C 133.859 133.296 134.516 132.736 135.204 132.237 C 138.296 129.838 142.179 128.413 146.392 128.413 C 148.263 128.413 150.069 128.694 151.77 129.217 Z " fill="rgb(0,111,222)"/><path d="M 141.918 90.744 L 141.918 90.744 C 148.337 84.325 158.759 84.325 165.178 90.744 L 207.046 132.611 C 213.464 139.03 213.464 149.452 207.046 155.871 L 207.046 155.871 C 200.627 162.29 190.205 162.29 183.786 155.871 L 141.918 114.003 C 135.5 107.585 135.5 97.162 141.918 90.744 Z" style="stroke:none;fill:#006FDE;stroke-miterlimit:10;"/><path d=" M 213.817 143.471 C 213.735 141.674 213.399 139.942 212.839 138.314 L 222.434 147.89 C 228.87 154.313 228.87 164.743 222.434 171.166 L 222.433 171.166 C 215.997 177.59 205.545 177.59 199.109 171.166 L 189.481 161.558 C 191.371 162.219 193.403 162.578 195.517 162.578 C 195.937 162.578 196.353 162.564 196.764 162.531 C 201.245 162.75 205.799 161.152 209.218 157.733 L 209.218 157.733 C 213.099 153.852 214.633 148.508 213.817 143.471 Z " fill="rgb(42,134,226)"/></g><g><path d=" M 304.823 160.065 C 306.626 157.987 308.428 155.808 310.23 153.531 C 312.133 151.153 313.935 148.727 315.638 146.252 C 317.44 143.775 319.142 141.399 320.744 139.122 C 322.346 136.745 323.748 134.517 324.951 132.436 L 347.179 132.436 C 345.378 134.714 343.324 137.191 341.021 139.864 C 338.718 142.538 336.315 145.26 333.811 148.034 C 331.409 150.807 328.955 153.481 326.453 156.055 C 324.049 158.63 321.846 161.007 319.843 163.185 C 322.346 165.562 325.05 168.434 327.954 171.8 C 330.857 175.069 333.712 178.486 336.515 182.05 C 339.319 185.616 341.872 189.18 344.175 192.746 C 346.578 196.311 348.481 199.479 349.883 202.253 L 328.705 202.253 C 327.504 199.776 325.901 197.004 323.899 193.934 C 321.996 190.765 319.943 187.695 317.74 184.724 C 315.537 181.654 313.284 178.783 310.981 176.109 C 308.779 173.335 306.726 171.058 304.823 169.276 L 304.823 202.253 L 286.199 202.253 L 286.199 102.282 L 304.823 99.163 L 304.823 160.065 Z " fill="rgb(0,111,222)"/><path d=" M 378.962 134.664 C 382.265 133.774 386.32 132.932 391.127 132.14 C 396.034 131.347 401.341 130.951 407.049 130.951 C 412.656 130.951 417.312 131.743 421.016 133.328 C 424.722 134.813 427.626 136.992 429.728 139.864 C 431.932 142.636 433.483 146.003 434.384 149.965 C 435.286 153.827 435.737 158.134 435.737 162.888 L 435.737 202.253 L 417.262 202.253 L 417.262 165.266 C 417.262 158.729 416.511 154.025 415.009 151.153 C 413.507 148.281 410.453 146.845 405.847 146.845 C 404.446 146.845 403.043 146.895 401.641 146.994 C 400.339 147.094 398.938 147.241 397.436 147.44 L 397.436 202.253 L 378.962 202.253 L 378.962 134.664 Z " fill="rgb(0,111,222)"/><path d=" M 498.943 132.436 C 497.04 138.973 495.189 145.409 493.386 151.747 C 491.684 157.987 489.882 164.127 487.979 170.167 C 486.077 176.109 484.023 181.952 481.821 187.695 C 479.718 193.439 477.415 199.033 474.911 204.481 C 473.009 208.442 471.106 211.859 469.203 214.73 C 467.402 217.601 465.348 219.929 463.047 221.712 C 460.843 223.594 458.339 224.98 455.536 225.872 C 452.833 226.762 449.628 227.208 445.923 227.208 C 442.819 227.208 439.965 226.961 437.362 226.465 C 434.859 225.97 432.756 225.326 431.053 224.534 L 434.508 209.233 C 436.511 210.125 438.263 210.72 439.765 211.017 C 441.368 211.413 443.07 211.61 444.872 211.61 C 448.477 211.61 451.381 210.422 453.583 208.046 C 455.786 205.669 457.539 202.846 458.841 199.579 C 454.434 190.864 450.028 180.911 445.623 169.722 C 441.217 158.432 437.212 146.003 433.607 132.436 L 452.833 132.436 C 453.734 136.101 454.734 140.012 455.837 144.171 C 457.038 148.33 458.289 152.49 459.591 156.649 C 460.892 160.808 462.245 164.918 463.646 168.979 C 465.148 172.939 466.65 176.653 468.153 180.119 C 469.154 176.653 470.205 172.939 471.306 168.979 C 472.409 164.918 473.459 160.858 474.461 156.798 C 475.463 152.639 476.413 148.48 477.315 144.32 C 478.316 140.161 479.218 136.199 480.018 132.436 L 498.943 132.436 Z " fill="rgb(0,111,222)"/><path d=" M 527.313 189.18 C 529.315 189.18 531.268 189.18 533.17 189.18 C 535.073 189.082 536.725 188.933 538.128 188.735 L 538.128 172.692 C 536.926 172.493 535.474 172.346 533.771 172.246 C 532.069 172.049 530.517 171.95 529.115 171.95 C 527.212 171.95 525.361 172.099 523.558 172.395 C 521.756 172.593 520.153 172.989 518.752 173.584 C 517.451 174.177 516.399 175.02 515.598 176.109 C 514.797 177.198 514.396 178.633 514.396 180.417 C 514.396 183.585 515.598 185.863 518.001 187.25 C 520.403 188.537 523.508 189.18 527.313 189.18 Z  M 525.661 130.654 C 531.468 130.654 536.275 131.347 540.08 132.733 C 543.985 134.021 547.09 135.903 549.393 138.379 C 551.695 140.755 553.347 143.725 554.349 147.291 C 555.351 150.757 555.851 154.669 555.851 159.026 L 555.851 200.618 C 553.147 201.213 549.141 201.906 543.836 202.698 C 538.529 203.491 532.571 203.887 525.962 203.887 C 521.455 203.887 517.35 203.491 513.646 202.698 C 510.041 201.906 506.936 200.618 504.333 198.836 C 501.73 196.955 499.726 194.577 498.325 191.706 C 496.923 188.735 496.222 185.12 496.222 180.861 C 496.222 176.802 497.024 173.385 498.625 170.612 C 500.228 167.84 502.381 165.612 505.083 163.928 C 507.787 162.245 510.892 161.057 514.396 160.362 C 517.901 159.571 521.556 159.175 525.361 159.175 C 530.166 159.175 534.422 159.571 538.128 160.362 L 538.128 158.134 C 538.128 154.669 537.027 151.797 534.823 149.519 C 532.62 147.142 528.815 145.955 523.409 145.955 C 519.903 145.955 516.499 146.202 513.195 146.697 C 509.99 147.192 507.386 147.787 505.384 148.48 L 502.831 133.774 C 505.134 132.982 508.388 132.289 512.594 131.694 C 516.8 131.001 521.155 130.654 525.661 130.654 Z " fill="rgb(0,111,222)"/><path d=" M 599.532 148.776 C 597.929 148.677 596.578 148.627 595.477 148.627 C 592.874 148.627 590.321 148.776 587.817 149.073 C 585.313 149.272 582.76 149.718 580.157 150.411 L 580.157 202.253 L 561.532 202.253 L 561.532 137.041 C 566.438 135.259 571.445 133.824 576.552 132.733 C 581.758 131.644 587.817 131.1 594.725 131.1 C 595.727 131.1 597.13 131.15 598.931 131.248 C 600.834 131.347 602.836 131.546 604.939 131.843 C 607.042 132.04 609.145 132.337 611.248 132.733 C 613.45 133.031 601.134 148.876 599.532 148.776 Z " fill="rgb(0,111,222)"/><path d=" M 659.598 202.253 C 658.496 199.182 657.445 196.359 656.443 193.785 C 655.542 191.211 654.641 188.735 653.741 186.358 C 652.939 183.882 652.088 181.357 651.187 178.783 C 650.386 176.109 649.535 173.188 648.634 170.018 C 647.632 173.188 646.731 176.059 645.93 178.633 C 645.128 181.11 644.277 183.585 643.377 186.062 C 642.575 188.537 641.724 191.061 640.823 193.637 C 639.922 196.212 638.821 199.083 637.52 202.253 L 623.551 202.253 C 622.349 197.894 621.198 193.092 620.096 187.844 C 619.095 182.496 618.144 176.851 617.242 170.91 C 616.341 164.869 615.539 158.63 614.839 152.193 C 614.139 145.756 613.488 139.17 612.887 132.436 L 628.657 132.436 C 629.058 141.051 629.459 149.469 629.859 157.69 C 630.36 165.909 631.211 174.375 632.413 183.089 C 633.714 179.326 634.816 175.862 635.716 172.692 C 636.718 169.425 637.569 166.355 638.27 163.482 C 639.071 160.511 639.772 157.69 640.373 155.016 C 641.073 152.243 641.775 149.42 642.476 146.548 L 655.844 146.548 C 656.445 149.42 657.044 152.243 657.645 155.016 C 658.347 157.69 659.048 160.511 659.748 163.482 C 660.55 166.355 661.351 169.425 662.151 172.692 C 663.053 175.862 664.105 179.326 665.305 183.089 C 665.906 178.536 666.407 174.177 666.807 170.018 C 667.208 165.859 667.509 161.75 667.708 157.69 C 668.009 153.531 668.21 149.42 668.309 145.36 C 668.51 141.201 668.71 136.892 668.91 132.436 L 684.681 132.436 C 683.58 146.003 682.028 158.779 680.025 170.761 C 678.122 182.743 675.969 193.241 673.567 202.253 L 659.598 202.253 Z " fill="rgb(0,111,222)"/><path d=" M 716.524 189.18 C 718.526 189.18 720.478 189.18 722.38 189.18 C 724.283 189.082 725.936 188.933 727.338 188.735 L 727.338 172.692 C 726.136 172.493 724.684 172.346 722.981 172.246 C 721.279 172.049 719.728 171.95 718.325 171.95 C 716.423 171.95 714.571 172.099 712.768 172.395 C 710.966 172.593 709.364 172.989 707.963 173.584 C 706.661 174.177 705.61 175.02 704.808 176.109 C 704.007 177.198 703.606 178.633 703.606 180.417 C 703.606 183.585 704.808 185.863 707.211 187.25 C 709.614 188.537 712.718 189.18 716.524 189.18 Z  M 714.871 130.654 C 720.678 130.654 725.485 131.347 729.29 132.733 C 733.195 134.021 736.3 135.903 738.603 138.379 C 740.905 140.755 742.557 143.725 743.559 147.291 C 744.561 150.757 745.061 154.669 745.061 159.026 L 745.061 200.618 C 742.357 201.213 738.351 201.906 733.044 202.698 C 727.739 203.491 721.781 203.887 715.172 203.887 C 710.665 203.887 706.56 203.491 702.856 202.698 C 699.251 201.906 696.146 200.618 693.543 198.836 C 690.94 196.955 688.937 194.577 687.536 191.706 C 686.133 188.735 685.433 185.12 685.433 180.861 C 685.433 176.802 686.234 173.385 687.835 170.612 C 689.438 167.84 691.591 165.612 694.293 163.928 C 696.997 162.245 700.102 161.057 703.606 160.362 C 707.111 159.571 710.766 159.175 714.571 159.175 C 719.377 159.175 723.632 159.571 727.338 160.362 L 727.338 158.134 C 727.338 154.669 726.237 151.797 724.033 149.519 C 721.831 147.142 718.025 145.955 712.617 145.955 C 709.113 145.955 705.709 146.202 702.405 146.697 C 699.2 147.192 696.597 147.787 694.595 148.48 L 692.041 133.774 C 694.345 132.982 697.598 132.289 701.804 131.694 C 706.009 131.001 710.365 130.654 714.871 130.654 Z " fill="rgb(0,111,222)"/><path d=" M 749.85 134.664 C 753.153 133.774 757.209 132.932 762.016 132.14 C 766.922 131.347 772.229 130.951 777.937 130.951 C 783.544 130.951 788.2 131.743 791.906 133.328 C 795.61 134.813 798.515 136.992 800.616 139.864 C 802.82 142.636 804.372 146.003 805.272 149.965 C 806.175 153.827 806.625 158.134 806.625 162.888 L 806.625 202.253 L 788.151 202.253 L 788.151 165.266 C 788.151 158.729 787.399 154.025 785.897 151.153 C 784.395 148.281 781.341 146.845 776.735 146.845 C 775.334 146.845 773.931 146.895 772.529 146.994 C 771.227 147.094 769.826 147.241 768.325 147.44 L 768.325 202.253 L 749.85 202.253 L 749.85 134.664 Z " fill="rgb(0,111,222)"/><path d=" M 830.957 166.899 C 830.957 173.138 832.108 178.237 834.411 182.199 C 836.814 186.16 840.619 188.14 845.827 188.14 C 847.328 188.14 848.731 188.091 850.032 187.993 C 851.334 187.893 852.685 187.744 854.088 187.547 L 854.088 149.519 C 852.685 148.727 851.084 148.083 849.281 147.588 C 847.479 146.994 845.577 146.697 843.573 146.697 C 839.168 146.697 835.963 148.43 833.961 151.896 C 831.959 155.362 830.957 160.362 830.957 166.899 Z  M 872.562 200.172 C 869.158 201.263 865.002 202.153 860.095 202.846 C 855.189 203.541 850.382 203.887 845.676 203.887 C 834.661 203.887 826.3 200.668 820.593 194.231 C 814.986 187.794 812.182 178.98 812.182 167.79 C 812.182 156.402 814.535 147.44 819.241 140.904 C 824.048 134.268 831.107 130.951 840.419 130.951 C 842.922 130.951 845.376 131.248 847.779 131.843 C 850.182 132.337 852.285 133.081 854.088 134.071 L 854.088 102.282 L 872.562 99.163 L 872.562 200.172 Z " fill="rgb(0,111,222)"/><path d=" M 907.24 189.18 C 909.242 189.18 911.194 189.18 913.097 189.18 C 915 189.082 916.652 188.933 918.055 188.735 L 918.055 172.692 C 916.853 172.493 915.4 172.346 913.698 172.246 C 911.996 172.049 910.444 171.95 909.042 171.95 C 907.139 171.95 905.288 172.099 903.485 172.395 C 901.683 172.593 900.08 172.989 898.679 173.584 C 897.376 174.177 896.326 175.02 895.525 176.109 C 894.723 177.198 894.323 178.633 894.323 180.417 C 894.323 183.585 895.525 185.863 897.927 187.25 C 900.33 188.537 903.435 189.18 907.24 189.18 Z  M 905.588 130.654 C 911.395 130.654 916.202 131.347 920.007 132.733 C 923.912 134.021 927.016 135.903 929.32 138.379 C 931.621 140.755 933.274 143.725 934.276 147.291 C 935.278 150.757 935.778 154.669 935.778 159.026 L 935.778 200.618 C 933.074 201.213 929.068 201.906 923.762 202.698 C 918.455 203.491 912.498 203.887 905.887 203.887 C 901.382 203.887 897.277 203.491 893.572 202.698 C 889.968 201.906 886.863 200.618 884.26 198.836 C 881.657 196.955 879.653 194.577 878.252 191.706 C 876.85 188.735 876.149 185.12 876.149 180.861 C 876.149 176.802 876.949 173.385 878.552 170.612 C 880.155 167.84 882.307 165.612 885.01 163.928 C 887.714 162.245 890.819 161.057 894.323 160.362 C 897.828 159.571 901.483 159.175 905.288 159.175 C 910.093 159.175 914.349 159.571 918.055 160.362 L 918.055 158.134 C 918.055 154.669 916.952 151.797 914.75 149.519 C 912.547 147.142 908.742 145.955 903.335 145.955 C 899.83 145.955 896.426 146.202 893.122 146.697 C 889.916 147.192 887.313 147.787 885.311 148.48 L 882.758 133.774 C 885.061 132.982 888.315 132.289 892.521 131.694 C 896.725 131.001 901.082 130.654 905.588 130.654 Z " fill="rgb(0,111,222)"/><path d=" M 353.157 132.106 L 374.018 132.106 L 374.018 202.253 L 353.157 202.253 L 353.157 132.106 Z " fill="rgb(0,111,222)"/><path d=" M 256.853 103.003 L 277.564 99.189 L 277.564 202.253 L 256.703 202.253 L 256.853 103.003 Z " fill="rgb(0,111,222)"/></g></g></svg>